<?xml version="1.0" standalone="no"?>
<!DOCTYPE svg PUBLIC "-//W3C//DTD SVG 20010904//EN"
 "http://www.w3.org/TR/2001/REC-SVG-20010904/DTD/svg10.dtd">
<svg version="1.0" xmlns="http://www.w3.org/2000/svg"
 width="500.000000pt" height="500.000000pt" viewBox="0 0 500.000000 500.000000"
 preserveAspectRatio="xMidYMid meet">

<g transform="translate(0.000000,500.000000) scale(0.100000,-0.100000)"
fill="#000000" stroke="none">
<path d="M1337 3866 c-57 -16 -82 -37 -112 -96 -46 -92 -67 -203 -72 -387 -6
-197 5 -294 48 -429 l29 -92 -34 -89 c-74 -191 -129 -458 -130 -633 -2 -336
141 -589 444 -785 181 -117 316 -175 611 -259 l196 -56 244 0 c228 0 250 2
336 25 534 143 919 363 1065 607 144 241 142 567 -6 1022 -20 60 -45 124 -55
142 -11 18 -16 36 -11 39 19 12 69 194 81 295 26 230 -18 532 -94 637 -34 48
-91 73 -168 73 -78 0 -230 -36 -325 -76 -113 -49 -309 -177 -356 -234 l-35
-43 -84 16 c-243 48 -513 47 -722 -2 l-72 -17 -76 70 c-192 179 -544 315 -702
272z m73 -136 c-9 -6 -10 -10 -3 -10 6 0 15 5 18 10 3 6 13 10 21 10 8 0 13
-4 10 -9 -3 -4 5 -6 17 -4 27 5 100 -24 92 -37 -3 -5 0 -12 6 -16 7 -4 9 -3 5
4 -8 14 11 25 27 15 6 -4 14 -8 17 -8 15 -1 100 -41 100 -47 0 -4 7 -5 15 -2
17 7 68 -30 57 -41 -4 -5 -2 -5 5 -1 6 3 14 2 18 -4 4 -6 11 -7 17 -4 8 5 9 1
4 -11 -5 -14 -4 -15 7 -7 9 8 22 3 51 -22 l39 -32 -55 -3 c-42 -1 -60 3 -81
19 -15 12 -27 19 -27 15 0 -4 -7 1 -16 10 -9 9 -23 14 -32 10 -8 -3 -22 1 -31
9 -9 8 -19 15 -24 15 -24 2 -57 14 -57 22 0 5 -6 9 -13 9 -8 0 -38 8 -68 18
-37 12 -66 15 -89 11 -42 -9 -50 -2 -54 42 -3 32 7 49 29 49 6 0 3 -5 -5 -10z
m2249 -2 c8 -7 11 -8 8 -2 -3 6 8 10 29 11 19 1 34 -3 34 -9 0 -5 5 -6 10 -3
18 11 22 -22 6 -52 -14 -28 -17 -30 -68 -25 -83 7 -243 -54 -338 -128 -21 -17
-31 -18 -61 -10 -20 6 -42 17 -49 25 -10 13 -8 16 18 21 19 4 29 11 26 19 -6
16 37 43 146 91 76 33 188 71 216 73 5 1 16 -5 23 -11z m-804 -303 c381 -58
652 -211 821 -465 92 -137 144 -262 199 -475 46 -178 58 -263 57 -380 -1 -190
-54 -346 -154 -452 -101 -107 -314 -247 -458 -301 -30 -11 -80 -31 -110 -45
-46 -20 -124 -48 -380 -134 -8 -2 -127 -4 -265 -4 l-250 0 -130 40 c-375 114
-548 198 -748 364 -52 43 -153 186 -180 253 -9 23 -26 81 -37 130 -54 218 13
589 160 889 115 234 285 392 525 485 106 41 298 88 410 100 50 6 106 12 125
14 63 8 315 -4 415 -19z"/>
<path d="M1726 2610 c-42 -13 -101 -75 -127 -134 -31 -72 -23 -171 18 -229 65
-95 197 -128 298 -77 57 29 109 103 120 170 17 98 -40 215 -125 258 -47 23
-127 29 -184 12z m152 -56 c29 -20 30 -76 2 -104 -41 -41 -110 -10 -110 50 0
58 60 88 108 54z"/>
<path d="M3212 2607 c-45 -14 -107 -87 -128 -149 -31 -94 -1 -209 69 -262 107
-82 233 -73 319 22 85 94 74 255 -24 349 -18 17 -46 37 -61 42 -35 14 -131 12
-175 -2z m156 -53 c50 -34 15 -124 -48 -124 -17 0 -39 9 -50 20 -11 11 -20 33
-20 50 0 59 67 90 118 54z"/>
<path d="M2366 2268 c-26 -36 -20 -98 13 -150 31 -49 56 -68 90 -68 26 0 27
-22 2 -75 -27 -60 -71 -92 -134 -100 -75 -10 -126 7 -169 54 -40 44 -78 59
-112 43 -70 -32 -17 -148 90 -199 29 -14 32 -20 37 -79 9 -115 93 -253 193
-315 101 -62 266 -65 381 -5 92 47 183 215 183 337 0 45 2 48 34 59 19 6 50
27 71 47 58 56 70 108 35 143 -32 32 -64 25 -124 -29 -42 -38 -65 -51 -99 -56
-85 -13 -161 24 -197 96 -28 54 -25 67 17 84 52 22 80 50 99 101 18 47 13 87
-13 117 -14 15 -37 17 -199 17 -178 0 -183 -1 -198 -22z m326 -508 c32 -11 69
-20 84 -20 26 0 26 -1 19 -47 -12 -82 -54 -161 -78 -146 -5 3 -7 1 -4 -4 16
-26 -78 -73 -145 -73 -24 0 -61 9 -84 19 -49 22 -115 87 -107 106 2 8 -4 24
-15 35 -18 19 -32 61 -32 95 0 7 20 15 51 18 59 7 130 45 161 87 l21 29 36
-40 c25 -27 54 -46 93 -59z"/>
</g>
</svg>
